<svg width="14" height="14" viewBox="0 0 14 14" fill="none" xmlns="http://www.w3.org/2000/svg">
<path fill-rule="evenodd" clip-rule="evenodd" d="M12.2345 2.97345H11.0575V1.79646C11.0575 0.80531 10.2522 0 9.29204 0H1.79646C0.80531 0 0 0.80531 0 1.79646V9.29204C0 10.2522 0.80531 11.0575 1.79646 11.0575H2.97345V12.2345C2.97345 13.2257 3.74779 14 4.73894 14H12.2345C13.2257 14 14 13.2257 14 12.2345V4.73894C14 3.74779 13.2257 2.97345 12.2345 2.97345ZM9.60177 2.97345H4.73894C3.74779 2.97345 2.97345 3.74779 2.97345 4.73894V9.60177H1.79646C1.70354 9.60177 1.61062 9.5708 1.57965 9.50885C1.5177 9.4469 1.48673 9.38496 1.48673 9.29204V1.79646C1.48673 1.70354 1.5177 1.61062 1.57965 1.57965C1.61062 1.5177 1.70354 1.48673 1.79646 1.48673H9.29204C9.38496 1.48673 9.4469 1.5177 9.50885 1.57965C9.5708 1.61062 9.60177 1.70354 9.60177 1.79646V2.97345Z" fill="white"/>
</svg>
