<svg width="16" height="16" viewBox="0 0 16 16" fill="none" xmlns="http://www.w3.org/2000/svg">
<g clip-path="url(#clip0)">
<path d="M3.44216 9.88049L4.65331 8.66934L2.74096 6.75699C1.46606 5.48209 1.35982 3.54849 2.46473 2.44358C3.56965 1.33866 5.50325 1.4449 6.77815 2.7198L8.6905 4.63215L9.90165 3.421L7.9893 1.50865C6.03446 -0.403702 3.03844 -0.531192 1.25358 1.25367C-0.531281 3.03853 -0.403791 6.03454 1.52981 7.96814L3.44216 9.88049Z" fill="#48C0B9"/>
<path d="M12.5576 6.11954L11.3465 7.33069L13.2588 9.24304C14.5337 10.5179 14.64 12.4515 13.5351 13.5565C12.9826 14.0877 12.2389 14.3639 11.474 14.3001C10.624 14.2577 9.8166 13.8752 9.22165 13.2802L7.3093 11.3679L6.09814 12.579L8.0105 14.4914C8.90293 15.4051 10.1141 15.9363 11.389 16.0213H11.644C12.8126 16.0425 13.9175 15.575 14.7462 14.7676C16.5311 12.9828 16.4036 9.98674 14.47 8.05314L12.5576 6.11954Z" fill="#48C0B9"/>
<path d="M5.41169 4.2015L4.20972 5.40347L10.5952 11.789L11.7972 10.587L5.41169 4.2015Z" fill="#48C0B9"/>
</g>
<defs>
<clipPath id="clip0">
<rect width="16" height="16" fill="white"/>
</clipPath>
</defs>
</svg>
