<svg width="16" height="20" viewBox="0 0 16 20" fill="none" xmlns="http://www.w3.org/2000/svg">
<g clip-path="url(#clip0)">
<path d="M7.54286 19.4743C7.68 19.6114 7.86286 19.6571 8 19.6571C8.13714 19.6571 8.32 19.6114 8.45714 19.4743C8.77714 19.2 16 12.2971 16 8C16 3.61143 12.4343 0 8 0C3.56571 0 0 3.61143 0 8C0 12.2971 7.22286 19.2 7.54286 19.4743ZM8 1.37143C11.6571 1.37143 14.6286 4.34286 14.6286 8C14.6286 10.8343 10.1943 15.8171 8 18.0114C5.80571 15.8171 1.37143 10.8343 1.37143 8C1.37143 4.34286 4.34286 1.37143 8 1.37143Z" fill="#48C0B9"/>
<path d="M11.4287 8C11.4287 6.12571 9.87439 4.57143 8.0001 4.57143C6.12582 4.57143 4.57153 6.12571 4.57153 8C4.57153 9.87428 6.12582 11.4286 8.0001 11.4286C9.87439 11.4286 11.4287 9.87428 11.4287 8ZM5.94296 8C5.94296 6.85714 6.85725 5.94286 8.0001 5.94286C9.14296 5.94286 10.0572 6.85714 10.0572 8C10.0572 9.14286 9.14296 10.0571 8.0001 10.0571C6.85725 10.0571 5.94296 9.14286 5.94296 8Z" fill="#48C0B9"/>
</g>
<defs>
<clipPath id="clip0">
<rect width="16" height="19.6571" fill="white"/>
</clipPath>
</defs>
</svg>
