<svg width="30" height="28" viewBox="0 0 30 28" fill="none" xmlns="http://www.w3.org/2000/svg">
<path d="M14.5578 0.909657C14.7454 0.554086 15.2546 0.554084 15.4422 0.909659L19.2187 8.06741C19.4357 8.47878 19.8313 8.76619 20.2896 8.84549L28.2641 10.2253C28.6602 10.2938 28.8176 10.7781 28.5374 11.0664L22.8969 16.8699C22.5728 17.2035 22.4217 17.6685 22.4879 18.1289L23.6399 26.1394C23.6971 26.5373 23.2851 26.8367 22.9243 26.6593L15.6619 23.0883C15.2445 22.883 14.7555 22.883 14.3381 23.0883L7.07567 26.6593C6.7149 26.8367 6.30291 26.5373 6.36014 26.1394L7.51213 18.1289C7.57833 17.6685 7.42723 17.2035 7.10307 16.8699L1.46263 11.0664C1.18244 10.7781 1.3398 10.2938 1.73594 10.2253L9.71037 8.84549C10.1687 8.76619 10.5643 8.47878 10.7813 8.06741L14.5578 0.909657Z" fill="#48C0B9" stroke="#48C0B9"/>
</svg>
