<svg width="30" height="28" viewBox="0 0 30 28" fill="none" xmlns="http://www.w3.org/2000/svg">
<path d="M14.1156 0.676337C14.4908 -0.0348094 15.5092 -0.0348076 15.8844 0.676339L19.6609 7.83409C19.8056 8.10834 20.0693 8.29995 20.3749 8.35281L28.3493 9.73259C29.1416 9.86967 29.4563 10.8383 28.8959 11.4149L23.2555 17.2184C23.0394 17.4408 22.9386 17.7508 22.9828 18.0577L24.1348 26.0682C24.2492 26.8641 23.4253 27.4627 22.7037 27.108L15.4412 23.537C15.163 23.4001 14.837 23.4001 14.5588 23.537L7.29629 27.108C6.57474 27.4627 5.75078 26.8641 5.86523 26.0682L7.01722 18.0577C7.06136 17.7508 6.96062 17.4408 6.74451 17.2184L1.10408 11.4149C0.543682 10.8383 0.858412 9.86967 1.6507 9.73259L9.62512 8.35281C9.93066 8.29995 10.1944 8.10834 10.3391 7.83409L14.1156 0.676337Z" fill="#EDF9F8"/>
</svg>
